<?xml version="1.0" encoding="UTF-8"?>
<svg width="192px" height="47px" viewBox="0 0 192 47" version="1.1" xmlns="http://www.w3.org/2000/svg" xmlns:xlink="http://www.w3.org/1999/xlink">
    <!-- Generator: Sketch 55.2 (78181) - https://sketchapp.com -->
    <title>logo-idealump</title>
    <desc>Created with Sketch.</desc>
    <g id="Page-1" stroke="none" stroke-width="1" fill="none" fill-rule="evenodd">
        <g id="Desktop-HD" transform="translate(-769.000000, -488.000000)" fill-rule="nonzero">
            <g id="logo-idealump" transform="translate(769.000000, 488.000000)">
                <polygon id="Path" fill="#000000" points="5.32436975 39.1666667 1.77478992 39.1666667 1.77478992 10.5344828 5.32436975 10.5344828"></polygon>
                <path d="M30.8705882,37.2758621 C30.8705882,37.654023 30.5478992,38.0862069 29.9563025,38.5183908 C29.3647059,38.9505747 28.8268908,39.2206897 28.2890756,39.2206897 L23.394958,39.2206897 C23.287395,39.2206897 23.2336134,39.1666667 23.0722689,39.0586207 C22.6420168,39.1126437 22.1579832,38.8965517 21.6201681,38.4103448 C21.0823529,37.9781609 20.8134454,37.6 20.8134454,37.2758621 L20.8134454,12.4252874 C20.8134454,11.9931034 21.1361345,11.6149425 21.7815126,11.1827586 C22.4268908,10.7505747 23.0184874,10.5344828 23.610084,10.5344828 L27.3747899,10.5344828 L27.3747899,2.70114943 L30.8168067,2.70114943 L30.8168067,37.2758621 L30.8705882,37.2758621 Z M27.4823529,36.6275862 L27.4823529,13.1275862 L24.3092437,13.1275862 L24.3092437,36.6275862 L27.4823529,36.6275862 Z" id="Shape" fill="#000000"></path>
                <path d="M56.6857143,29.5505747 C56.6857143,29.9287356 56.3630252,30.3609195 55.7714286,30.7931034 C55.1798319,31.2252874 54.6420168,31.4954023 54.1042017,31.4954023 L50.0705882,31.4954023 L50.0705882,36.6275862 L53.6201681,36.6275862 L53.6201681,39.2206897 L49.210084,39.2206897 C49.102521,39.2206897 49.0487395,39.1666667 48.887395,39.0586207 C48.4571429,39.1126437 47.9731092,38.8965517 47.4352941,38.4103448 C46.897479,37.9781609 46.6285714,37.6 46.6285714,37.2758621 L46.6285714,12.4252874 C46.6285714,11.9931034 46.9512605,11.5609195 47.5966387,11.1287356 C48.2420168,10.6965517 48.8336134,10.4804598 49.4252101,10.4804598 L53.8352941,10.4804598 C54.4268908,10.4804598 55.0184874,10.6965517 55.6638655,11.1287356 C56.3092437,11.5609195 56.6319328,11.9931034 56.6319328,12.4252874 L56.6319328,29.5505747 L56.6857143,29.5505747 Z M53.297479,28.9022989 L53.297479,13.1275862 L50.1243697,13.1275862 L50.1243697,28.9022989 L53.297479,28.9022989 Z" id="Shape" fill="#000000"></path>
                <path d="M82.2857143,37.2758621 C82.2857143,37.654023 81.9630252,38.0862069 81.3714286,38.5183908 C80.7798319,38.9505747 80.2420168,39.2206897 79.7042017,39.2206897 L74.810084,39.2206897 C74.702521,39.2206897 74.6487395,39.1666667 74.487395,39.0586207 C74.0571429,39.1126437 73.5731092,38.8965517 73.0352941,38.4103448 C72.497479,37.9781609 72.2285714,37.6 72.2285714,37.2758621 L72.2285714,20.2045977 C72.2285714,19.8264368 72.5512605,19.3942529 73.1428571,18.962069 C73.7344538,18.5298851 74.2722689,18.2597701 74.810084,18.2597701 L78.8436975,18.2597701 L78.8436975,13.1275862 L75.2941176,13.1275862 L75.2941176,10.5344828 L79.4890756,10.5344828 C80.0806723,10.5344828 80.6722689,10.7505747 81.3176471,11.1827586 C81.9630252,11.6149425 82.2857143,12.0471264 82.2857143,12.4793103 L82.2857143,37.2758621 Z M78.897479,36.6275862 L78.897479,20.8528736 L75.7243697,20.8528736 L75.7243697,36.6275862 L78.897479,36.6275862 Z" id="Shape" fill="#000000"></path>
                <polygon id="Path" fill="#000000" points="108.10084 39.1666667 98.097479 39.1666667 98.097479 0.216091954 101.539496 0.216091954 101.539496 36.5735632 108.10084 36.5735632"></polygon>
                <path d="M133.378151,37.2758621 C133.378151,37.654023 133.055462,38.0862069 132.463866,38.5183908 C131.872269,38.9505747 131.334454,39.2206897 130.796639,39.2206897 L125.902521,39.2206897 C125.794958,39.2206897 125.741176,39.1666667 125.579832,39.0586207 C125.14958,39.1666667 124.611765,39.0045977 124.127731,38.4643678 C123.589916,37.9241379 123.37479,37.491954 123.37479,37.1137931 L123.37479,10.5885057 L126.816807,10.5885057 L126.816807,36.6816092 L129.989916,36.6816092 L129.989916,10.5885057 L133.431933,10.5885057 L133.431933,37.2758621 L133.378151,37.2758621 Z" id="Path" fill="#000000"></path>
                <path d="M165.808403,39.1666667 L162.366387,39.1666667 L162.366387,13.0735632 L159.193277,13.0735632 L159.193277,39.1666667 L155.751261,39.1666667 L155.751261,13.0735632 L152.52437,13.0735632 L152.52437,39.1666667 L149.082353,39.1666667 L149.082353,10.5344828 L162.957983,10.5344828 C163.54958,10.5344828 164.141176,10.7505747 164.786555,11.1827586 C165.431933,11.6149425 165.754622,12.0471264 165.754622,12.4793103 L165.754622,39.1666667 L165.808403,39.1666667 Z" id="Path" fill="#000000"></path>
                <path d="M191.569748,37.2758621 C191.569748,37.654023 191.247059,38.0862069 190.655462,38.5183908 C190.063866,38.9505747 189.52605,39.2206897 188.988235,39.2206897 L185.008403,39.2206897 L185.008403,47 L181.566387,47 L181.566387,10.5344828 L188.773109,10.5344828 C189.364706,10.5344828 189.956303,10.7505747 190.601681,11.1827586 C191.247059,11.6149425 191.569748,12.0471264 191.569748,12.4793103 L191.569748,37.2758621 L191.569748,37.2758621 Z M188.127731,36.6275862 L188.127731,13.1275862 L185.008403,13.1275862 L185.008403,36.6275862 L188.127731,36.6275862 Z" id="Shape" fill="#000000"></path>
                <path d="M6.88403361,3.2954023 C6.88403361,5.13218391 5.43193277,6.5908046 3.60336134,6.5908046 C1.77478992,6.5908046 0.322689076,5.13218391 0.322689076,3.2954023 C0.322689076,1.45862069 1.77478992,0 3.60336134,0 C5.43193277,0 6.88403361,1.45862069 6.88403361,3.2954023 Z" id="Path" fill="#C50018"></path>
            </g>
        </g>
    </g>
</svg>